<svg xmlns="http://www.w3.org/2000/svg" xmlns:xlink="http://www.w3.org/1999/xlink" version="1.1" class="marks" width="874" height="299" viewBox="0 0 874 299"><rect width="874" height="299" fill="white"/><g fill="none" stroke-miterlimit="10" transform="translate(328,40)"><g class="mark-group role-frame root" role="graphics-object" aria-roledescription="group mark container"><g transform="translate(0,0)"><path class="background" aria-hidden="true" d="M0,0h540v222h-540Z"/><g><g class="mark-group role-axis" aria-hidden="true"><g transform="translate(0.5,222.5)"><path class="background" aria-hidden="true" d="M0,0h0v0h0Z" pointer-events="none"/><g><g class="mark-rule role-axis-grid" pointer-events="none"><line transform="translate(0,0)" x2="0" y2="-222" stroke="#e2e8f0" stroke-width="1" opacity="1"/><line transform="translate(135,0)" x2="0" y2="-222" stroke="#e2e8f0" stroke-width="1" opacity="1"/><line transform="translate(270,0)" x2="0" y2="-222" stroke="#e2e8f0" stroke-width="1" opacity="1"/><line transform="translate(405,0)" x2="0" y2="-222" stroke="#e2e8f0" stroke-width="1" opacity="1"/><line transform="translate(540,0)" x2="0" y2="-222" stroke="#e2e8f0" stroke-width="1" opacity="1"/></g></g><path class="foreground" aria-hidden="true" d="" pointer-events="none" display="none"/></g></g><g class="mark-group role-axis" role="graphics-symbol" aria-roledescription="axis" aria-label="X-axis titled 'Operations per second' for a linear scale with values from 0 to 2,000,000"><g transform="translate(0.5,222.5)"><path class="background" aria-hidden="true" d="M0,0h0v0h0Z" pointer-events="none"/><g><g class="mark-rule role-axis-tick" pointer-events="none"><line transform="translate(0,0)" x2="0" y2="5" stroke="#cbd5e1" stroke-width="1" opacity="1"/><line transform="translate(135,0)" x2="0" y2="5" stroke="#cbd5e1" stroke-width="1" opacity="1"/><line transform="translate(270,0)" x2="0" y2="5" stroke="#cbd5e1" stroke-width="1" opacity="1"/><line transform="translate(405,0)" x2="0" y2="5" stroke="#cbd5e1" stroke-width="1" opacity="1"/><line transform="translate(540,0)" x2="0" y2="5" stroke="#cbd5e1" stroke-width="1" opacity="1"/></g><g class="mark-text role-axis-label" pointer-events="none"><text text-anchor="start" transform="translate(0,15)" font-family="system-ui, -apple-system, sans-serif" font-size="10px" fill="#000" opacity="1">0</text><text text-anchor="middle" transform="translate(135,15)" font-family="system-ui, -apple-system, sans-serif" font-size="10px" fill="#000" opacity="1">500K</text><text text-anchor="middle" transform="translate(270,15)" font-family="system-ui, -apple-system, sans-serif" font-size="10px" fill="#000" opacity="1">1M</text><text text-anchor="middle" transform="translate(405,15)" font-family="system-ui, -apple-system, sans-serif" font-size="10px" fill="#000" opacity="1">1.5M</text><text text-anchor="end" transform="translate(540,15)" font-family="system-ui, -apple-system, sans-serif" font-size="10px" fill="#000" opacity="1">2M</text></g><g class="mark-rule role-axis-domain" pointer-events="none"><line transform="translate(0,0)" x2="540" y2="0" stroke="#cbd5e1" stroke-width="1" opacity="1"/></g><g class="mark-text role-axis-title" pointer-events="none"><text text-anchor="middle" transform="translate(270,30)" font-family="system-ui, -apple-system, sans-serif" font-size="11px" font-weight="bold" fill="#000" opacity="1">Operations per second</text></g></g><path class="foreground" aria-hidden="true" d="" pointer-events="none" display="none"/></g></g><g class="mark-group role-axis" role="graphics-symbol" aria-roledescription="axis" aria-label="Y-axis for a discrete scale with 8 values: deep-redact v4  [Path-based], fast-redact †  [Path-based], json-stringify-regex †  [Path-based], deep-redact v3  [Path-based], deep-redact v4  [Wildcard], ending with deep-redact v3  [Wildcard]"><g transform="translate(0.5,0.5)"><path class="background" aria-hidden="true" d="M0,0h0v0h0Z" pointer-events="none"/><g><g class="mark-rule role-axis-tick" pointer-events="none"><line transform="translate(0,13)" x2="-5" y2="0" stroke="#cbd5e1" stroke-width="1" opacity="1"/><line transform="translate(0,41)" x2="-5" y2="0" stroke="#cbd5e1" stroke-width="1" opacity="1"/><line transform="translate(0,69)" x2="-5" y2="0" stroke="#cbd5e1" stroke-width="1" opacity="1"/><line transform="translate(0,97)" x2="-5" y2="0" stroke="#cbd5e1" stroke-width="1" opacity="1"/><line transform="translate(0,124)" x2="-5" y2="0" stroke="#cbd5e1" stroke-width="1" opacity="1"/><line transform="translate(0,152)" x2="-5" y2="0" stroke="#cbd5e1" stroke-width="1" opacity="1"/><line transform="translate(0,180)" x2="-5" y2="0" stroke="#cbd5e1" stroke-width="1" opacity="1"/><line transform="translate(0,208)" x2="-5" y2="0" stroke="#cbd5e1" stroke-width="1" opacity="1"/></g><g class="mark-text role-axis-label" pointer-events="none"><text text-anchor="end" transform="translate(-7,16.37499999999999)" font-family="system-ui, -apple-system, sans-serif" font-size="11px" fill="#000" opacity="1">deep-redact v4  [Path-based]</text><text text-anchor="end" transform="translate(-7,44.124999999999986)" font-family="system-ui, -apple-system, sans-serif" font-size="11px" fill="#000" opacity="1">fast-redact †  [Path-based]</text><text text-anchor="end" transform="translate(-7,71.87499999999999)" font-family="system-ui, -apple-system, sans-serif" font-size="11px" fill="#000" opacity="1">json-stringify-regex †  [Path-based]</text><text text-anchor="end" transform="translate(-7,99.62499999999999)" font-family="system-ui, -apple-system, sans-serif" font-size="11px" fill="#000" opacity="1">deep-redact v3  [Path-based]</text><text text-anchor="end" transform="translate(-7,127.37499999999999)" font-family="system-ui, -apple-system, sans-serif" font-size="11px" fill="#000" opacity="1">deep-redact v4  [Wildcard]</text><text text-anchor="end" transform="translate(-7,155.125)" font-family="system-ui, -apple-system, sans-serif" font-size="11px" fill="#000" opacity="1">fast-redact †  [Wildcard]</text><text text-anchor="end" transform="translate(-7,182.875)" font-family="system-ui, -apple-system, sans-serif" font-size="11px" fill="#000" opacity="1">json-stringify-regex †  [Wildcard]</text><text text-anchor="end" transform="translate(-7,210.625)" font-family="system-ui, -apple-system, sans-serif" font-size="11px" fill="#000" opacity="1">deep-redact v3  [Wildcard]</text></g><g class="mark-rule role-axis-domain" pointer-events="none"><line transform="translate(0,0)" x2="0" y2="222" stroke="#cbd5e1" stroke-width="1" opacity="1"/></g></g><path class="foreground" aria-hidden="true" d="" pointer-events="none" display="none"/></g></g><g class="mark-group role-scope" role="graphics-object" aria-roledescription="group mark container"><g transform="translate(0,1.3874999999999886)"><path class="background" aria-hidden="true" d="M0,0L57.309630000000006,0C58.96537507348201,0,60.309630000000006,1.344254926518,60.309630000000006,3L60.309630000000006,21.975C60.309630000000006,23.630745073482,58.96537507348201,24.975,57.309630000000006,24.975L0,24.975C0,24.975,0,24.975,0,24.975L0,0C0,0,0,0,0,0Z"/><g clip-path="url(#clip7)"><g class="mark-group role-scope" role="graphics-object" aria-roledescription="group mark container"><g transform="translate(0,0)"><path class="background" aria-hidden="true" d="M0,0h0v24.975h0Z"/><g><g class="mark-rect role-mark layer_0_marks" role="graphics-object" aria-roledescription="rect mark container"><path aria-label="Operations per second: 223369; yLabel: deep-redact v4  [Path-based]; colour: #2563eb" role="graphics-symbol" aria-roledescription="bar" d="M0,0h60.309630000000006v24.975h-60.309630000000006Z" fill="#2563eb"/></g></g><path class="foreground" aria-hidden="true" d="" display="none"/></g></g></g><path class="foreground" aria-hidden="true" d="" display="none"/></g><g transform="translate(0,29.13749999999999)"><path class="background" aria-hidden="true" d="M0,0L446.33049,0C447.986235073482,0,449.33049,1.344254926518,449.33049,3L449.33049,21.975C449.33049,23.630745073482,447.986235073482,24.975,446.33049,24.975L0,24.975C0,24.975,0,24.975,0,24.975L0,0C0,0,0,0,0,0Z"/><g clip-path="url(#clip8)"><g class="mark-group role-scope" role="graphics-object" aria-roledescription="group mark container"><g transform="translate(0,0)"><path class="background" aria-hidden="true" d="M0,0h0v24.975h0Z"/><g><g class="mark-rect role-mark layer_0_marks" role="graphics-object" aria-roledescription="rect mark container"><path aria-label="Operations per second: 1664187; yLabel: fast-redact †  [Path-based]; colour: #f59e0b" role="graphics-symbol" aria-roledescription="bar" d="M0,0h449.33049v24.975h-449.33049Z" fill="#f59e0b"/></g></g><path class="foreground" aria-hidden="true" d="" display="none"/></g></g></g><path class="foreground" aria-hidden="true" d="" display="none"/></g><g transform="translate(0,56.88749999999999)"><path class="background" aria-hidden="true" d="M0,0L161.58282000000003,0C163.23856507348202,0,164.58282000000003,1.344254926518,164.58282000000003,3L164.58282000000003,21.975C164.58282000000003,23.630745073482,163.23856507348202,24.975,161.58282000000003,24.975L0,24.975C0,24.975,0,24.975,0,24.975L0,0C0,0,0,0,0,0Z"/><g clip-path="url(#clip9)"><g class="mark-group role-scope" role="graphics-object" aria-roledescription="group mark container"><g transform="translate(0,0)"><path class="background" aria-hidden="true" d="M0,0h0v24.975h0Z"/><g><g class="mark-rect role-mark layer_0_marks" role="graphics-object" aria-roledescription="rect mark container"><path aria-label="Operations per second: 609566; yLabel: json-stringify-regex †  [Path-based]; colour: #94a3b8" role="graphics-symbol" aria-roledescription="bar" d="M0,0h164.58282000000003v24.975h-164.58282000000003Z" fill="#94a3b8"/></g></g><path class="foreground" aria-hidden="true" d="" display="none"/></g></g></g><path class="foreground" aria-hidden="true" d="" display="none"/></g><g transform="translate(0,84.63749999999999)"><path class="background" aria-hidden="true" d="M0,0L36.46941,0C38.125155073482006,0,39.46941,1.344254926518,39.46941,3L39.46941,21.975C39.46941,23.630745073482,38.125155073482006,24.975,36.46941,24.975L0,24.975C0,24.975,0,24.975,0,24.975L0,0C0,0,0,0,0,0Z"/><g clip-path="url(#clip10)"><g class="mark-group role-scope" role="graphics-object" aria-roledescription="group mark container"><g transform="translate(0,0)"><path class="background" aria-hidden="true" d="M0,0h0v24.975h0Z"/><g><g class="mark-rect role-mark layer_0_marks" role="graphics-object" aria-roledescription="rect mark container"><path aria-label="Operations per second: 146183; yLabel: deep-redact v3  [Path-based]; colour: #64748b" role="graphics-symbol" aria-roledescription="bar" d="M0,0h39.46941v24.975h-39.46941Z" fill="#64748b"/></g></g><path class="foreground" aria-hidden="true" d="" display="none"/></g></g></g><path class="foreground" aria-hidden="true" d="" display="none"/></g><g transform="translate(0,112.38749999999999)"><path class="background" aria-hidden="true" d="M0,0L36.13272,0C37.788465073482,0,39.13272,1.344254926518,39.13272,3L39.13272,21.975C39.13272,23.630745073482,37.788465073482,24.975,36.13272,24.975L0,24.975C0,24.975,0,24.975,0,24.975L0,0C0,0,0,0,0,0Z"/><g clip-path="url(#clip11)"><g class="mark-group role-scope" role="graphics-object" aria-roledescription="group mark container"><g transform="translate(0,0)"><path class="background" aria-hidden="true" d="M0,0h0v24.975h0Z"/><g><g class="mark-rect role-mark layer_0_marks" role="graphics-object" aria-roledescription="rect mark container"><path aria-label="Operations per second: 144936; yLabel: deep-redact v4  [Wildcard]; colour: #2563eb" role="graphics-symbol" aria-roledescription="bar" d="M0,0h39.13272v24.975h-39.13272Z" fill="#2563eb"/></g></g><path class="foreground" aria-hidden="true" d="" display="none"/></g></g></g><path class="foreground" aria-hidden="true" d="" display="none"/></g><g transform="translate(0,140.1375)"><path class="background" aria-hidden="true" d="M0,0L269.07387,0C270.729615073482,0,272.07387,1.344254926518,272.07387,3L272.07387,21.975C272.07387,23.630745073482,270.729615073482,24.975,269.07387,24.975L0,24.975C0,24.975,0,24.975,0,24.975L0,0C0,0,0,0,0,0Z"/><g clip-path="url(#clip12)"><g class="mark-group role-scope" role="graphics-object" aria-roledescription="group mark container"><g transform="translate(0,0)"><path class="background" aria-hidden="true" d="M0,0h0v24.975h0Z"/><g><g class="mark-rect role-mark layer_0_marks" role="graphics-object" aria-roledescription="rect mark container"><path aria-label="Operations per second: 1007681; yLabel: fast-redact †  [Wildcard]; colour: #f59e0b" role="graphics-symbol" aria-roledescription="bar" d="M0,0h272.07387v24.975h-272.07387Z" fill="#f59e0b"/></g></g><path class="foreground" aria-hidden="true" d="" display="none"/></g></g></g><path class="foreground" aria-hidden="true" d="" display="none"/></g><g transform="translate(0,167.8875)"><path class="background" aria-hidden="true" d="M0,0L161.09142,0C162.747165073482,0,164.09142,1.344254926518,164.09142,3L164.09142,21.975C164.09142,23.630745073482,162.747165073482,24.975,161.09142,24.975L0,24.975C0,24.975,0,24.975,0,24.975L0,0C0,0,0,0,0,0Z"/><g clip-path="url(#clip13)"><g class="mark-group role-scope" role="graphics-object" aria-roledescription="group mark container"><g transform="translate(0,0)"><path class="background" aria-hidden="true" d="M0,0h0v24.975h0Z"/><g><g class="mark-rect role-mark layer_0_marks" role="graphics-object" aria-roledescription="rect mark container"><path aria-label="Operations per second: 607746; yLabel: json-stringify-regex †  [Wildcard]; colour: #94a3b8" role="graphics-symbol" aria-roledescription="bar" d="M0,0h164.09142v24.975h-164.09142Z" fill="#94a3b8"/></g></g><path class="foreground" aria-hidden="true" d="" display="none"/></g></g></g><path class="foreground" aria-hidden="true" d="" display="none"/></g><g transform="translate(0,195.6375)"><path class="background" aria-hidden="true" d="M0,0L35.40264,0C37.058385073482,0,38.40264,1.344254926518,38.40264,3L38.40264,21.975C38.40264,23.630745073482,37.058385073482,24.975,35.40264,24.975L0,24.975C0,24.975,0,24.975,0,24.975L0,0C0,0,0,0,0,0Z"/><g clip-path="url(#clip14)"><g class="mark-group role-scope" role="graphics-object" aria-roledescription="group mark container"><g transform="translate(0,0)"><path class="background" aria-hidden="true" d="M0,0h0v24.975h0Z"/><g><g class="mark-rect role-mark layer_0_marks" role="graphics-object" aria-roledescription="rect mark container"><path aria-label="Operations per second: 142232; yLabel: deep-redact v3  [Wildcard]; colour: #64748b" role="graphics-symbol" aria-roledescription="bar" d="M0,0h38.40264v24.975h-38.40264Z" fill="#64748b"/></g></g><path class="foreground" aria-hidden="true" d="" display="none"/></g></g></g><path class="foreground" aria-hidden="true" d="" display="none"/></g></g><g class="mark-text role-mark layer_1_marks" role="graphics-object" aria-roledescription="text mark container"><text aria-label="ops: 223369; yLabel: deep-redact v4  [Path-based]; opsLabel: 223K" role="graphics-symbol" aria-roledescription="text mark" text-anchor="start" transform="translate(64.30963,16.87499999999999)" font-family="system-ui, -apple-system, sans-serif" font-size="10px" fill="#475569">223K</text><text aria-label="ops: 1664187; yLabel: fast-redact †  [Path-based]; opsLabel: 1.7M" role="graphics-symbol" aria-roledescription="text mark" text-anchor="start" transform="translate(453.33049,44.624999999999986)" font-family="system-ui, -apple-system, sans-serif" font-size="10px" fill="#475569">1.7M</text><text aria-label="ops: 609566; yLabel: json-stringify-regex †  [Path-based]; opsLabel: 610K" role="graphics-symbol" aria-roledescription="text mark" text-anchor="start" transform="translate(168.58282000000003,72.37499999999999)" font-family="system-ui, -apple-system, sans-serif" font-size="10px" fill="#475569">610K</text><text aria-label="ops: 146183; yLabel: deep-redact v3  [Path-based]; opsLabel: 146K" role="graphics-symbol" aria-roledescription="text mark" text-anchor="start" transform="translate(43.46941,100.12499999999999)" font-family="system-ui, -apple-system, sans-serif" font-size="10px" fill="#475569">146K</text><text aria-label="ops: 144936; yLabel: deep-redact v4  [Wildcard]; opsLabel: 145K" role="graphics-symbol" aria-roledescription="text mark" text-anchor="start" transform="translate(43.13272,127.87499999999999)" font-family="system-ui, -apple-system, sans-serif" font-size="10px" fill="#475569">145K</text><text aria-label="ops: 1007681; yLabel: fast-redact †  [Wildcard]; opsLabel: 1.0M" role="graphics-symbol" aria-roledescription="text mark" text-anchor="start" transform="translate(276.07387,155.625)" font-family="system-ui, -apple-system, sans-serif" font-size="10px" fill="#475569">1.0M</text><text aria-label="ops: 607746; yLabel: json-stringify-regex †  [Wildcard]; opsLabel: 608K" role="graphics-symbol" aria-roledescription="text mark" text-anchor="start" transform="translate(168.09142,183.375)" font-family="system-ui, -apple-system, sans-serif" font-size="10px" fill="#475569">608K</text><text aria-label="ops: 142232; yLabel: deep-redact v3  [Wildcard]; opsLabel: 142K" role="graphics-symbol" aria-roledescription="text mark" text-anchor="start" transform="translate(42.40264,211.125)" font-family="system-ui, -apple-system, sans-serif" font-size="10px" fill="#475569">142K</text></g><g class="mark-group role-title"><g transform="translate(-323,-31)"><path class="background" aria-hidden="true" d="M0,0h0v0h0Z" pointer-events="none"/><g><g class="mark-text role-title-text" role="graphics-symbol" aria-roledescription="title" aria-label="Title text 'Operations per second — serialised output'" pointer-events="none"><text text-anchor="start" transform="translate(0,7)" font-family="system-ui, -apple-system, sans-serif" font-size="14px" font-weight="bold" fill="#1e293b" opacity="1">Operations per second — serialised output</text></g><g class="mark-text role-title-subtitle" role="graphics-symbol" aria-roledescription="subtitle" aria-label="Subtitle text 'All solutions return a JSON string. Higher is better. Node.js 24, Apple M-series.'" pointer-events="none"><text text-anchor="start" transform="translate(0,21)" font-family="system-ui, -apple-system, sans-serif" font-size="10px" fill="#64748b" opacity="1">All solutions return a JSON string. Higher is better. Node.js 24, Apple M-series.</text></g></g><path class="foreground" aria-hidden="true" d="" pointer-events="none" display="none"/></g></g></g><path class="foreground" aria-hidden="true" d="" display="none"/></g></g></g><defs><clipPath id="clip7"><path d="M0,0L57.309630000000006,0C58.96537507348201,0,60.309630000000006,1.344254926518,60.309630000000006,3L60.309630000000006,21.975C60.309630000000006,23.630745073482,58.96537507348201,24.975,57.309630000000006,24.975L0,24.975C0,24.975,0,24.975,0,24.975L0,0C0,0,0,0,0,0Z"/></clipPath><clipPath id="clip8"><path d="M0,0L446.33049,0C447.986235073482,0,449.33049,1.344254926518,449.33049,3L449.33049,21.975C449.33049,23.630745073482,447.986235073482,24.975,446.33049,24.975L0,24.975C0,24.975,0,24.975,0,24.975L0,0C0,0,0,0,0,0Z"/></clipPath><clipPath id="clip9"><path d="M0,0L161.58282000000003,0C163.23856507348202,0,164.58282000000003,1.344254926518,164.58282000000003,3L164.58282000000003,21.975C164.58282000000003,23.630745073482,163.23856507348202,24.975,161.58282000000003,24.975L0,24.975C0,24.975,0,24.975,0,24.975L0,0C0,0,0,0,0,0Z"/></clipPath><clipPath id="clip10"><path d="M0,0L36.46941,0C38.125155073482006,0,39.46941,1.344254926518,39.46941,3L39.46941,21.975C39.46941,23.630745073482,38.125155073482006,24.975,36.46941,24.975L0,24.975C0,24.975,0,24.975,0,24.975L0,0C0,0,0,0,0,0Z"/></clipPath><clipPath id="clip11"><path d="M0,0L36.13272,0C37.788465073482,0,39.13272,1.344254926518,39.13272,3L39.13272,21.975C39.13272,23.630745073482,37.788465073482,24.975,36.13272,24.975L0,24.975C0,24.975,0,24.975,0,24.975L0,0C0,0,0,0,0,0Z"/></clipPath><clipPath id="clip12"><path d="M0,0L269.07387,0C270.729615073482,0,272.07387,1.344254926518,272.07387,3L272.07387,21.975C272.07387,23.630745073482,270.729615073482,24.975,269.07387,24.975L0,24.975C0,24.975,0,24.975,0,24.975L0,0C0,0,0,0,0,0Z"/></clipPath><clipPath id="clip13"><path d="M0,0L161.09142,0C162.747165073482,0,164.09142,1.344254926518,164.09142,3L164.09142,21.975C164.09142,23.630745073482,162.747165073482,24.975,161.09142,24.975L0,24.975C0,24.975,0,24.975,0,24.975L0,0C0,0,0,0,0,0Z"/></clipPath><clipPath id="clip14"><path d="M0,0L35.40264,0C37.058385073482,0,38.40264,1.344254926518,38.40264,3L38.40264,21.975C38.40264,23.630745073482,37.058385073482,24.975,35.40264,24.975L0,24.975C0,24.975,0,24.975,0,24.975L0,0C0,0,0,0,0,0Z"/></clipPath></defs></svg>