<svg xmlns="http://www.w3.org/2000/svg" xmlns:xlink="http://www.w3.org/1999/xlink" version="1.1" class="marks" width="874" height="347" viewBox="0 0 874 347"><rect width="874" height="347" fill="white"/><g fill="none" stroke-miterlimit="10" transform="translate(328,40)"><g class="mark-group role-frame root" role="graphics-object" aria-roledescription="group mark container"><g transform="translate(0,0)"><path class="background" aria-hidden="true" d="M0,0h540v270h-540Z"/><g><g class="mark-group role-axis" aria-hidden="true"><g transform="translate(0.5,270.5)"><path class="background" aria-hidden="true" d="M0,0h0v0h0Z" pointer-events="none"/><g><g class="mark-rule role-axis-grid" pointer-events="none"><line transform="translate(0,0)" x2="0" y2="-270" stroke="#e2e8f0" stroke-width="1" opacity="1"/><line transform="translate(135,0)" x2="0" y2="-270" stroke="#e2e8f0" stroke-width="1" opacity="1"/><line transform="translate(270,0)" x2="0" y2="-270" stroke="#e2e8f0" stroke-width="1" opacity="1"/><line transform="translate(405,0)" x2="0" y2="-270" stroke="#e2e8f0" stroke-width="1" opacity="1"/><line transform="translate(540,0)" x2="0" y2="-270" stroke="#e2e8f0" stroke-width="1" opacity="1"/></g></g><path class="foreground" aria-hidden="true" d="" pointer-events="none" display="none"/></g></g><g class="mark-group role-axis" role="graphics-symbol" aria-roledescription="axis" aria-label="X-axis titled 'Operations per second' for a linear scale with values from 0 to 2,000,000"><g transform="translate(0.5,270.5)"><path class="background" aria-hidden="true" d="M0,0h0v0h0Z" pointer-events="none"/><g><g class="mark-rule role-axis-tick" pointer-events="none"><line transform="translate(0,0)" x2="0" y2="5" stroke="#cbd5e1" stroke-width="1" opacity="1"/><line transform="translate(135,0)" x2="0" y2="5" stroke="#cbd5e1" stroke-width="1" opacity="1"/><line transform="translate(270,0)" x2="0" y2="5" stroke="#cbd5e1" stroke-width="1" opacity="1"/><line transform="translate(405,0)" x2="0" y2="5" stroke="#cbd5e1" stroke-width="1" opacity="1"/><line transform="translate(540,0)" x2="0" y2="5" stroke="#cbd5e1" stroke-width="1" opacity="1"/></g><g class="mark-text role-axis-label" pointer-events="none"><text text-anchor="start" transform="translate(0,15)" font-family="system-ui, -apple-system, sans-serif" font-size="10px" fill="#000" opacity="1">0</text><text text-anchor="middle" transform="translate(135,15)" font-family="system-ui, -apple-system, sans-serif" font-size="10px" fill="#000" opacity="1">500K</text><text text-anchor="middle" transform="translate(270,15)" font-family="system-ui, -apple-system, sans-serif" font-size="10px" fill="#000" opacity="1">1M</text><text text-anchor="middle" transform="translate(405,15)" font-family="system-ui, -apple-system, sans-serif" font-size="10px" fill="#000" opacity="1">1.5M</text><text text-anchor="end" transform="translate(540,15)" font-family="system-ui, -apple-system, sans-serif" font-size="10px" fill="#000" opacity="1">2M</text></g><g class="mark-rule role-axis-domain" pointer-events="none"><line transform="translate(0,0)" x2="540" y2="0" stroke="#cbd5e1" stroke-width="1" opacity="1"/></g><g class="mark-text role-axis-title" pointer-events="none"><text text-anchor="middle" transform="translate(270,30)" font-family="system-ui, -apple-system, sans-serif" font-size="11px" font-weight="bold" fill="#000" opacity="1">Operations per second</text></g></g><path class="foreground" aria-hidden="true" d="" pointer-events="none" display="none"/></g></g><g class="mark-group role-axis" role="graphics-symbol" aria-roledescription="axis" aria-label="Y-axis for a discrete scale with 10 values: deep-redact v4  [Path-based], fast-redact †  [Path-based], json-stringify-regex †  [Path-based], deep-redact v3  [Path-based], deep-redact v2  [Path-based], ending with deep-redact v2  [Wildcard]"><g transform="translate(0.5,0.5)"><path class="background" aria-hidden="true" d="M0,0h0v0h0Z" pointer-events="none"/><g><g class="mark-rule role-axis-tick" pointer-events="none"><line transform="translate(0,13)" x2="-5" y2="0" stroke="#cbd5e1" stroke-width="1" opacity="1"/><line transform="translate(0,40)" x2="-5" y2="0" stroke="#cbd5e1" stroke-width="1" opacity="1"/><line transform="translate(0,67)" x2="-5" y2="0" stroke="#cbd5e1" stroke-width="1" opacity="1"/><line transform="translate(0,94)" x2="-5" y2="0" stroke="#cbd5e1" stroke-width="1" opacity="1"/><line transform="translate(0,121)" x2="-5" y2="0" stroke="#cbd5e1" stroke-width="1" opacity="1"/><line transform="translate(0,148)" x2="-5" y2="0" stroke="#cbd5e1" stroke-width="1" opacity="1"/><line transform="translate(0,175)" x2="-5" y2="0" stroke="#cbd5e1" stroke-width="1" opacity="1"/><line transform="translate(0,202)" x2="-5" y2="0" stroke="#cbd5e1" stroke-width="1" opacity="1"/><line transform="translate(0,229)" x2="-5" y2="0" stroke="#cbd5e1" stroke-width="1" opacity="1"/><line transform="translate(0,256)" x2="-5" y2="0" stroke="#cbd5e1" stroke-width="1" opacity="1"/></g><g class="mark-text role-axis-label" pointer-events="none"><text text-anchor="end" transform="translate(-7,15.999999999999995)" font-family="system-ui, -apple-system, sans-serif" font-size="11px" fill="#000" opacity="1">deep-redact v4  [Path-based]</text><text text-anchor="end" transform="translate(-7,42.99999999999999)" font-family="system-ui, -apple-system, sans-serif" font-size="11px" fill="#000" opacity="1">fast-redact †  [Path-based]</text><text text-anchor="end" transform="translate(-7,70)" font-family="system-ui, -apple-system, sans-serif" font-size="11px" fill="#000" opacity="1">json-stringify-regex †  [Path-based]</text><text text-anchor="end" transform="translate(-7,97)" font-family="system-ui, -apple-system, sans-serif" font-size="11px" fill="#000" opacity="1">deep-redact v3  [Path-based]</text><text text-anchor="end" transform="translate(-7,124)" font-family="system-ui, -apple-system, sans-serif" font-size="11px" fill="#000" opacity="1">deep-redact v2  [Path-based]</text><text text-anchor="end" transform="translate(-7,151)" font-family="system-ui, -apple-system, sans-serif" font-size="11px" fill="#000" opacity="1">deep-redact v4  [Wildcard]</text><text text-anchor="end" transform="translate(-7,178)" font-family="system-ui, -apple-system, sans-serif" font-size="11px" fill="#000" opacity="1">fast-redact †  [Wildcard]</text><text text-anchor="end" transform="translate(-7,205)" font-family="system-ui, -apple-system, sans-serif" font-size="11px" fill="#000" opacity="1">json-stringify-regex †  [Wildcard]</text><text text-anchor="end" transform="translate(-7,232)" font-family="system-ui, -apple-system, sans-serif" font-size="11px" fill="#000" opacity="1">deep-redact v3  [Wildcard]</text><text text-anchor="end" transform="translate(-7,259)" font-family="system-ui, -apple-system, sans-serif" font-size="11px" fill="#000" opacity="1">deep-redact v2  [Wildcard]</text></g><g class="mark-rule role-axis-domain" pointer-events="none"><line transform="translate(0,0)" x2="0" y2="270" stroke="#cbd5e1" stroke-width="1" opacity="1"/></g></g><path class="foreground" aria-hidden="true" d="" pointer-events="none" display="none"/></g></g><g class="mark-group role-scope" role="graphics-object" aria-roledescription="group mark container"><g transform="translate(0,1.3499999999999943)"><path class="background" aria-hidden="true" d="M0,0L56.70375,0C58.359495073482,0,59.70375,1.344254926518,59.70375,3L59.70375,21.3C59.70375,22.955745073482,58.359495073482,24.3,56.70375,24.3L0,24.3C0,24.3,0,24.3,0,24.3L0,0C0,0,0,0,0,0Z"/><g clip-path="url(#clip9)"><g class="mark-group role-scope" role="graphics-object" aria-roledescription="group mark container"><g transform="translate(0,0)"><path class="background" aria-hidden="true" d="M0,0h0v24.3h0Z"/><g><g class="mark-rect role-mark layer_0_marks" role="graphics-object" aria-roledescription="rect mark container"><path aria-label="Operations per second: 221125; yLabel: deep-redact v4  [Path-based]; colour: #2563eb" role="graphics-symbol" aria-roledescription="bar" d="M0,0h59.70375v24.3h-59.70375Z" fill="#2563eb"/></g></g><path class="foreground" aria-hidden="true" d="" display="none"/></g></g></g><path class="foreground" aria-hidden="true" d="" display="none"/></g><g transform="translate(0,28.349999999999994)"><path class="background" aria-hidden="true" d="M0,0L444.66756000000004,0C446.32330507348206,0,447.66756000000004,1.344254926518,447.66756000000004,3L447.66756000000004,21.3C447.66756000000004,22.955745073482,446.32330507348206,24.3,444.66756000000004,24.3L0,24.3C0,24.3,0,24.3,0,24.3L0,0C0,0,0,0,0,0Z"/><g clip-path="url(#clip10)"><g class="mark-group role-scope" role="graphics-object" aria-roledescription="group mark container"><g transform="translate(0,0)"><path class="background" aria-hidden="true" d="M0,0h0v24.3h0Z"/><g><g class="mark-rect role-mark layer_0_marks" role="graphics-object" aria-roledescription="rect mark container"><path aria-label="Operations per second: 1658028; yLabel: fast-redact †  [Path-based]; colour: #f59e0b" role="graphics-symbol" aria-roledescription="bar" d="M0,0h447.66756000000004v24.3h-447.66756000000004Z" fill="#f59e0b"/></g></g><path class="foreground" aria-hidden="true" d="" display="none"/></g></g></g><path class="foreground" aria-hidden="true" d="" display="none"/></g><g transform="translate(0,55.349999999999994)"><path class="background" aria-hidden="true" d="M0,0L160.90188,0C162.557625073482,0,163.90188,1.344254926518,163.90188,3L163.90188,21.3C163.90188,22.955745073482,162.557625073482,24.3,160.90188,24.3L0,24.3C0,24.3,0,24.3,0,24.3L0,0C0,0,0,0,0,0Z"/><g clip-path="url(#clip11)"><g class="mark-group role-scope" role="graphics-object" aria-roledescription="group mark container"><g transform="translate(0,0)"><path class="background" aria-hidden="true" d="M0,0h0v24.3h0Z"/><g><g class="mark-rect role-mark layer_0_marks" role="graphics-object" aria-roledescription="rect mark container"><path aria-label="Operations per second: 607044; yLabel: json-stringify-regex †  [Path-based]; colour: #94a3b8" role="graphics-symbol" aria-roledescription="bar" d="M0,0h163.90188v24.3h-163.90188Z" fill="#94a3b8"/></g></g><path class="foreground" aria-hidden="true" d="" display="none"/></g></g></g><path class="foreground" aria-hidden="true" d="" display="none"/></g><g transform="translate(0,82.35)"><path class="background" aria-hidden="true" d="M0,0L36.451589999999996,0C38.107335073482,0,39.451589999999996,1.344254926518,39.451589999999996,3L39.451589999999996,21.3C39.451589999999996,22.955745073482,38.107335073482,24.3,36.451589999999996,24.3L0,24.3C0,24.3,0,24.3,0,24.3L0,0C0,0,0,0,0,0Z"/><g clip-path="url(#clip12)"><g class="mark-group role-scope" role="graphics-object" aria-roledescription="group mark container"><g transform="translate(0,0)"><path class="background" aria-hidden="true" d="M0,0h0v24.3h0Z"/><g><g class="mark-rect role-mark layer_0_marks" role="graphics-object" aria-roledescription="rect mark container"><path aria-label="Operations per second: 146117; yLabel: deep-redact v3  [Path-based]; colour: #64748b" role="graphics-symbol" aria-roledescription="bar" d="M0,0h39.451589999999996v24.3h-39.451589999999996Z" fill="#64748b"/></g></g><path class="foreground" aria-hidden="true" d="" display="none"/></g></g></g><path class="foreground" aria-hidden="true" d="" display="none"/></g><g transform="translate(0,109.35)"><path class="background" aria-hidden="true" d="M0,0L64.80186,0C66.457605073482,0,67.80186,1.344254926518,67.80186,3L67.80186,21.3C67.80186,22.955745073482,66.457605073482,24.3,64.80186,24.3L0,24.3C0,24.3,0,24.3,0,24.3L0,0C0,0,0,0,0,0Z"/><g clip-path="url(#clip13)"><g class="mark-group role-scope" role="graphics-object" aria-roledescription="group mark container"><g transform="translate(0,0)"><path class="background" aria-hidden="true" d="M0,0h0v24.3h0Z"/><g><g class="mark-rect role-mark layer_0_marks" role="graphics-object" aria-roledescription="rect mark container"><path aria-label="Operations per second: 251118; yLabel: deep-redact v2  [Path-based]; colour: #475569" role="graphics-symbol" aria-roledescription="bar" d="M0,0h67.80186v24.3h-67.80186Z" fill="#475569"/></g></g><path class="foreground" aria-hidden="true" d="" display="none"/></g></g></g><path class="foreground" aria-hidden="true" d="" display="none"/></g><g transform="translate(0,136.35)"><path class="background" aria-hidden="true" d="M0,0L36.134609999999995,0C37.790355073482,0,39.134609999999995,1.344254926518,39.134609999999995,3L39.134609999999995,21.3C39.134609999999995,22.955745073482,37.790355073482,24.3,36.134609999999995,24.3L0,24.3C0,24.3,0,24.3,0,24.3L0,0C0,0,0,0,0,0Z"/><g clip-path="url(#clip14)"><g class="mark-group role-scope" role="graphics-object" aria-roledescription="group mark container"><g transform="translate(0,0)"><path class="background" aria-hidden="true" d="M0,0h0v24.3h0Z"/><g><g class="mark-rect role-mark layer_0_marks" role="graphics-object" aria-roledescription="rect mark container"><path aria-label="Operations per second: 144943; yLabel: deep-redact v4  [Wildcard]; colour: #2563eb" role="graphics-symbol" aria-roledescription="bar" d="M0,0h39.134609999999995v24.3h-39.134609999999995Z" fill="#2563eb"/></g></g><path class="foreground" aria-hidden="true" d="" display="none"/></g></g></g><path class="foreground" aria-hidden="true" d="" display="none"/></g><g transform="translate(0,163.35)"><path class="background" aria-hidden="true" d="M0,0L271.48011,0C273.13585507348205,0,274.48011,1.344254926518,274.48011,3L274.48011,21.3C274.48011,22.955745073482,273.13585507348205,24.3,271.48011,24.3L0,24.3C0,24.3,0,24.3,0,24.3L0,0C0,0,0,0,0,0Z"/><g clip-path="url(#clip15)"><g class="mark-group role-scope" role="graphics-object" aria-roledescription="group mark container"><g transform="translate(0,0)"><path class="background" aria-hidden="true" d="M0,0h0v24.3h0Z"/><g><g class="mark-rect role-mark layer_0_marks" role="graphics-object" aria-roledescription="rect mark container"><path aria-label="Operations per second: 1016593; yLabel: fast-redact †  [Wildcard]; colour: #f59e0b" role="graphics-symbol" aria-roledescription="bar" d="M0,0h274.48011v24.3h-274.48011Z" fill="#f59e0b"/></g></g><path class="foreground" aria-hidden="true" d="" display="none"/></g></g></g><path class="foreground" aria-hidden="true" d="" display="none"/></g><g transform="translate(0,190.35)"><path class="background" aria-hidden="true" d="M0,0L162.2292,0C163.884945073482,0,165.2292,1.344254926518,165.2292,3L165.2292,21.3C165.2292,22.955745073482,163.884945073482,24.3,162.2292,24.3L0,24.3C0,24.3,0,24.3,0,24.3L0,0C0,0,0,0,0,0Z"/><g clip-path="url(#clip16)"><g class="mark-group role-scope" role="graphics-object" aria-roledescription="group mark container"><g transform="translate(0,0)"><path class="background" aria-hidden="true" d="M0,0h0v24.3h0Z"/><g><g class="mark-rect role-mark layer_0_marks" role="graphics-object" aria-roledescription="rect mark container"><path aria-label="Operations per second: 611960; yLabel: json-stringify-regex †  [Wildcard]; colour: #94a3b8" role="graphics-symbol" aria-roledescription="bar" d="M0,0h165.2292v24.3h-165.2292Z" fill="#94a3b8"/></g></g><path class="foreground" aria-hidden="true" d="" display="none"/></g></g></g><path class="foreground" aria-hidden="true" d="" display="none"/></g><g transform="translate(0,217.35)"><path class="background" aria-hidden="true" d="M0,0L35.56248,0C37.218225073482,0,38.56248,1.344254926518,38.56248,3L38.56248,21.3C38.56248,22.955745073482,37.218225073482,24.3,35.56248,24.3L0,24.3C0,24.3,0,24.3,0,24.3L0,0C0,0,0,0,0,0Z"/><g clip-path="url(#clip17)"><g class="mark-group role-scope" role="graphics-object" aria-roledescription="group mark container"><g transform="translate(0,0)"><path class="background" aria-hidden="true" d="M0,0h0v24.3h0Z"/><g><g class="mark-rect role-mark layer_0_marks" role="graphics-object" aria-roledescription="rect mark container"><path aria-label="Operations per second: 142824; yLabel: deep-redact v3  [Wildcard]; colour: #64748b" role="graphics-symbol" aria-roledescription="bar" d="M0,0h38.56248v24.3h-38.56248Z" fill="#64748b"/></g></g><path class="foreground" aria-hidden="true" d="" display="none"/></g></g></g><path class="foreground" aria-hidden="true" d="" display="none"/></g><g transform="translate(0,244.35)"><path class="background" aria-hidden="true" d="M0,0L65.82084,0C67.476585073482,0,68.82084,1.344254926518,68.82084,3L68.82084,21.3C68.82084,22.955745073482,67.476585073482,24.3,65.82084,24.3L0,24.3C0,24.3,0,24.3,0,24.3L0,0C0,0,0,0,0,0Z"/><g clip-path="url(#clip18)"><g class="mark-group role-scope" role="graphics-object" aria-roledescription="group mark container"><g transform="translate(0,0)"><path class="background" aria-hidden="true" d="M0,0h0v24.3h0Z"/><g><g class="mark-rect role-mark layer_0_marks" role="graphics-object" aria-roledescription="rect mark container"><path aria-label="Operations per second: 254892; yLabel: deep-redact v2  [Wildcard]; colour: #475569" role="graphics-symbol" aria-roledescription="bar" d="M0,0h68.82084v24.3h-68.82084Z" fill="#475569"/></g></g><path class="foreground" aria-hidden="true" d="" display="none"/></g></g></g><path class="foreground" aria-hidden="true" d="" display="none"/></g></g><g class="mark-text role-mark layer_1_marks" role="graphics-object" aria-roledescription="text mark container"><text aria-label="ops: 221125; yLabel: deep-redact v4  [Path-based]; opsLabel: 221K" role="graphics-symbol" aria-roledescription="text mark" text-anchor="start" transform="translate(63.70375,16.499999999999993)" font-family="system-ui, -apple-system, sans-serif" font-size="10px" fill="#475569">221K</text><text aria-label="ops: 1658028; yLabel: fast-redact †  [Path-based]; opsLabel: 1.7M" role="graphics-symbol" aria-roledescription="text mark" text-anchor="start" transform="translate(451.66756000000004,43.49999999999999)" font-family="system-ui, -apple-system, sans-serif" font-size="10px" fill="#475569">1.7M</text><text aria-label="ops: 607044; yLabel: json-stringify-regex †  [Path-based]; opsLabel: 607K" role="graphics-symbol" aria-roledescription="text mark" text-anchor="start" transform="translate(167.90188,70.5)" font-family="system-ui, -apple-system, sans-serif" font-size="10px" fill="#475569">607K</text><text aria-label="ops: 146117; yLabel: deep-redact v3  [Path-based]; opsLabel: 146K" role="graphics-symbol" aria-roledescription="text mark" text-anchor="start" transform="translate(43.451589999999996,97.5)" font-family="system-ui, -apple-system, sans-serif" font-size="10px" fill="#475569">146K</text><text aria-label="ops: 251118; yLabel: deep-redact v2  [Path-based]; opsLabel: 251K" role="graphics-symbol" aria-roledescription="text mark" text-anchor="start" transform="translate(71.80186,124.5)" font-family="system-ui, -apple-system, sans-serif" font-size="10px" fill="#475569">251K</text><text aria-label="ops: 144943; yLabel: deep-redact v4  [Wildcard]; opsLabel: 145K" role="graphics-symbol" aria-roledescription="text mark" text-anchor="start" transform="translate(43.134609999999995,151.5)" font-family="system-ui, -apple-system, sans-serif" font-size="10px" fill="#475569">145K</text><text aria-label="ops: 1016593; yLabel: fast-redact †  [Wildcard]; opsLabel: 1.0M" role="graphics-symbol" aria-roledescription="text mark" text-anchor="start" transform="translate(278.48011,178.5)" font-family="system-ui, -apple-system, sans-serif" font-size="10px" fill="#475569">1.0M</text><text aria-label="ops: 611960; yLabel: json-stringify-regex †  [Wildcard]; opsLabel: 612K" role="graphics-symbol" aria-roledescription="text mark" text-anchor="start" transform="translate(169.2292,205.5)" font-family="system-ui, -apple-system, sans-serif" font-size="10px" fill="#475569">612K</text><text aria-label="ops: 142824; yLabel: deep-redact v3  [Wildcard]; opsLabel: 143K" role="graphics-symbol" aria-roledescription="text mark" text-anchor="start" transform="translate(42.56248,232.5)" font-family="system-ui, -apple-system, sans-serif" font-size="10px" fill="#475569">143K</text><text aria-label="ops: 254892; yLabel: deep-redact v2  [Wildcard]; opsLabel: 255K" role="graphics-symbol" aria-roledescription="text mark" text-anchor="start" transform="translate(72.82084,259.5)" font-family="system-ui, -apple-system, sans-serif" font-size="10px" fill="#475569">255K</text></g><g class="mark-group role-title"><g transform="translate(-323,-31)"><path class="background" aria-hidden="true" d="M0,0h0v0h0Z" pointer-events="none"/><g><g class="mark-text role-title-text" role="graphics-symbol" aria-roledescription="title" aria-label="Title text 'Operations per second — serialised output'" pointer-events="none"><text text-anchor="start" transform="translate(0,7)" font-family="system-ui, -apple-system, sans-serif" font-size="14px" font-weight="bold" fill="#1e293b" opacity="1">Operations per second — serialised output</text></g><g class="mark-text role-title-subtitle" role="graphics-symbol" aria-roledescription="subtitle" aria-label="Subtitle text 'All solutions return a JSON string. Higher is better. Node.js 24, Apple M-series.'" pointer-events="none"><text text-anchor="start" transform="translate(0,21)" font-family="system-ui, -apple-system, sans-serif" font-size="10px" fill="#64748b" opacity="1">All solutions return a JSON string. Higher is better. Node.js 24, Apple M-series.</text></g></g><path class="foreground" aria-hidden="true" d="" pointer-events="none" display="none"/></g></g></g><path class="foreground" aria-hidden="true" d="" display="none"/></g></g></g><defs><clipPath id="clip9"><path d="M0,0L56.70375,0C58.359495073482,0,59.70375,1.344254926518,59.70375,3L59.70375,21.3C59.70375,22.955745073482,58.359495073482,24.3,56.70375,24.3L0,24.3C0,24.3,0,24.3,0,24.3L0,0C0,0,0,0,0,0Z"/></clipPath><clipPath id="clip10"><path d="M0,0L444.66756000000004,0C446.32330507348206,0,447.66756000000004,1.344254926518,447.66756000000004,3L447.66756000000004,21.3C447.66756000000004,22.955745073482,446.32330507348206,24.3,444.66756000000004,24.3L0,24.3C0,24.3,0,24.3,0,24.3L0,0C0,0,0,0,0,0Z"/></clipPath><clipPath id="clip11"><path d="M0,0L160.90188,0C162.557625073482,0,163.90188,1.344254926518,163.90188,3L163.90188,21.3C163.90188,22.955745073482,162.557625073482,24.3,160.90188,24.3L0,24.3C0,24.3,0,24.3,0,24.3L0,0C0,0,0,0,0,0Z"/></clipPath><clipPath id="clip12"><path d="M0,0L36.451589999999996,0C38.107335073482,0,39.451589999999996,1.344254926518,39.451589999999996,3L39.451589999999996,21.3C39.451589999999996,22.955745073482,38.107335073482,24.3,36.451589999999996,24.3L0,24.3C0,24.3,0,24.3,0,24.3L0,0C0,0,0,0,0,0Z"/></clipPath><clipPath id="clip13"><path d="M0,0L64.80186,0C66.457605073482,0,67.80186,1.344254926518,67.80186,3L67.80186,21.3C67.80186,22.955745073482,66.457605073482,24.3,64.80186,24.3L0,24.3C0,24.3,0,24.3,0,24.3L0,0C0,0,0,0,0,0Z"/></clipPath><clipPath id="clip14"><path d="M0,0L36.134609999999995,0C37.790355073482,0,39.134609999999995,1.344254926518,39.134609999999995,3L39.134609999999995,21.3C39.134609999999995,22.955745073482,37.790355073482,24.3,36.134609999999995,24.3L0,24.3C0,24.3,0,24.3,0,24.3L0,0C0,0,0,0,0,0Z"/></clipPath><clipPath id="clip15"><path d="M0,0L271.48011,0C273.13585507348205,0,274.48011,1.344254926518,274.48011,3L274.48011,21.3C274.48011,22.955745073482,273.13585507348205,24.3,271.48011,24.3L0,24.3C0,24.3,0,24.3,0,24.3L0,0C0,0,0,0,0,0Z"/></clipPath><clipPath id="clip16"><path d="M0,0L162.2292,0C163.884945073482,0,165.2292,1.344254926518,165.2292,3L165.2292,21.3C165.2292,22.955745073482,163.884945073482,24.3,162.2292,24.3L0,24.3C0,24.3,0,24.3,0,24.3L0,0C0,0,0,0,0,0Z"/></clipPath><clipPath id="clip17"><path d="M0,0L35.56248,0C37.218225073482,0,38.56248,1.344254926518,38.56248,3L38.56248,21.3C38.56248,22.955745073482,37.218225073482,24.3,35.56248,24.3L0,24.3C0,24.3,0,24.3,0,24.3L0,0C0,0,0,0,0,0Z"/></clipPath><clipPath id="clip18"><path d="M0,0L65.82084,0C67.476585073482,0,68.82084,1.344254926518,68.82084,3L68.82084,21.3C68.82084,22.955745073482,67.476585073482,24.3,65.82084,24.3L0,24.3C0,24.3,0,24.3,0,24.3L0,0C0,0,0,0,0,0Z"/></clipPath></defs></svg>